<svg width="25" height="25" viewBox="0 0 25 25" fill="none" xmlns="http://www.w3.org/2000/svg">
<path d="M24.8557 5.21252C24.7126 5.00749 24.4823 4.88075 24.2322 4.87007L8.72447 4.20183C8.27952 4.18237 7.9077 4.52577 7.88868 4.9685C7.86977 5.41107 8.21272 5.78501 8.65554 5.80402L23.1134 6.42707L20.2707 15.2937H7.62024L5.33476 2.85339C5.28452 2.58073 5.09727 2.35327 4.83902 2.25198L1.09578 0.781896C0.683232 0.620429 0.217699 0.823004 0.0556768 1.23492C-0.106065 1.64706 0.096518 2.11272 0.508846 2.27469L3.83718 3.5818L6.163 16.2405C6.2331 16.621 6.56486 16.8974 6.95207 16.8974H7.33788L6.45689 19.3437C6.38315 19.5486 6.41353 19.7762 6.53902 19.9542C6.66434 20.1323 6.86815 20.2382 7.08573 20.2382H7.70366C7.32076 20.6643 7.08573 21.2252 7.08573 21.842C7.08573 23.1685 8.16545 24.2476 9.49211 24.2476C10.8188 24.2476 11.8985 23.1685 11.8985 21.842C11.8985 21.2252 11.6635 20.6643 11.2806 20.2382H16.5271C16.1441 20.6643 15.9091 21.2252 15.9091 21.842C15.9091 23.1685 16.9885 24.2476 18.3155 24.2476C19.6425 24.2476 20.7219 23.1685 20.7219 21.842C20.7219 21.2252 20.4869 20.6643 20.1041 20.2382H20.8556C21.2248 20.2382 21.524 19.9391 21.524 19.5701C21.524 19.2009 21.2248 18.9018 20.8556 18.9018H8.03683L8.75865 16.8972H20.8555C21.2044 16.8972 21.513 16.6719 21.6193 16.3401L24.9615 5.91571C25.0382 5.67779 24.9988 5.41767 24.8557 5.21252ZM9.49217 22.9114C8.90232 22.9114 8.42263 22.4319 8.42263 21.8423C8.42263 21.2526 8.90232 20.7731 9.49217 20.7731C10.082 20.7731 10.5616 21.2526 10.5616 21.8423C10.5616 22.4319 10.082 22.9114 9.49217 22.9114ZM18.3155 22.9114C17.7256 22.9114 17.246 22.4319 17.246 21.8423C17.246 21.2526 17.7256 20.7731 18.3155 20.7731C18.9053 20.7731 19.385 21.2526 19.385 21.8423C19.385 22.4319 18.9053 22.9114 18.3155 22.9114Z" fill="#6130AF"/>
</svg>
