<svg width="14" height="14" viewBox="0 0 14 14" fill="none" xmlns="http://www.w3.org/2000/svg">
<g clip-path="url(#clip0)">
<path d="M13.5556 6.14736L7.32615 0.132764C7.14468 -0.0441326 6.85523 -0.0441326 6.67376 0.132764L0.444515 6.14712C0.352809 6.23563 0.301025 6.3576 0.301025 6.48506C0.301025 6.74448 0.511328 6.95475 0.770714 6.95475H1.59854V13.5304C1.59854 13.7898 1.80881 14.0001 2.06823 14.0001H5.35605C5.61546 14.0001 5.82574 13.7898 5.82574 13.5304V9.77288H8.17418V13.5304C8.17418 13.7898 8.38445 14.0001 8.64386 14.0001H11.9317C12.1911 14.0001 12.4014 13.7898 12.4014 13.5304V6.95475H13.2292C13.3565 6.95475 13.4784 6.90306 13.5669 6.8115C13.7472 6.62497 13.7421 6.32763 13.5556 6.14736ZM12.4014 6.48506C12.142 6.48506 11.9317 6.69534 11.9317 6.95475V13.5304H8.64386V9.77288C8.64386 9.51347 8.43359 9.30319 8.17418 9.30319H5.82574C5.56632 9.30319 5.35605 9.51347 5.35605 9.77288V13.5304H2.06823V6.95475C2.06823 6.69534 1.85795 6.48506 1.59854 6.48506H0.770714L6.99996 0.470705L13.2315 6.48506H12.4014Z" fill="#37475F"/>
</g>
<defs>
<clipPath id="clip0">
<rect width="14" height="14" fill="white"/>
</clipPath>
</defs>
</svg>
