<svg width="201" height="39" viewBox="0 0 201 39" fill="none" xmlns="http://www.w3.org/2000/svg">
<path d="M55.36 19L55.347 13.54L52.669 18.038H51.72L49.055 13.657V19H47.079V9.9H48.821L52.227 15.555L55.581 9.9H57.31L57.336 19H55.36ZM65.488 17.05H61.263L60.457 19H58.299L62.355 9.9H64.435L68.504 19H66.294L65.488 17.05ZM64.825 15.451L63.382 11.967L61.939 15.451H64.825ZM77.7941 9.9V19H76.0651L71.5281 13.475V19H69.4481V9.9H71.1901L75.7141 15.425V9.9H77.7941ZM86.0962 14.307H88.0202V17.999C87.5262 18.3717 86.9542 18.6577 86.3042 18.857C85.6542 19.0563 84.9998 19.156 84.3412 19.156C83.3965 19.156 82.5472 18.9567 81.7932 18.558C81.0392 18.1507 80.4455 17.5917 80.0122 16.881C79.5875 16.1617 79.3752 15.3513 79.3752 14.45C79.3752 13.5487 79.5875 12.7427 80.0122 12.032C80.4455 11.3127 81.0435 10.7537 81.8062 10.355C82.5688 9.94767 83.4268 9.744 84.3802 9.744C85.1775 9.744 85.9012 9.87833 86.5512 10.147C87.2012 10.4157 87.7472 10.8057 88.1892 11.317L86.8372 12.565C86.1872 11.8803 85.4028 11.538 84.4842 11.538C83.9035 11.538 83.3878 11.6593 82.9372 11.902C82.4865 12.1447 82.1355 12.487 81.8842 12.929C81.6328 13.371 81.5072 13.878 81.5072 14.45C81.5072 15.0133 81.6328 15.516 81.8842 15.958C82.1355 16.4 82.4822 16.7467 82.9242 16.998C83.3748 17.2407 83.8862 17.362 84.4582 17.362C85.0648 17.362 85.6108 17.232 86.0962 16.972V14.307ZM94.3835 19.156C93.4388 19.156 92.5851 18.9523 91.8225 18.545C91.0685 18.1377 90.4748 17.5787 90.0415 16.868C89.6168 16.1487 89.4045 15.3427 89.4045 14.45C89.4045 13.5573 89.6168 12.7557 90.0415 12.045C90.4748 11.3257 91.0685 10.7623 91.8225 10.355C92.5851 9.94767 93.4388 9.744 94.3835 9.744C95.3281 9.744 96.1775 9.94767 96.9315 10.355C97.6855 10.7623 98.2791 11.3257 98.7125 12.045C99.1458 12.7557 99.3625 13.5573 99.3625 14.45C99.3625 15.3427 99.1458 16.1487 98.7125 16.868C98.2791 17.5787 97.6855 18.1377 96.9315 18.545C96.1775 18.9523 95.3281 19.156 94.3835 19.156ZM94.3835 17.362C94.9208 17.362 95.4061 17.2407 95.8395 16.998C96.2728 16.7467 96.6108 16.4 96.8535 15.958C97.1048 15.516 97.2305 15.0133 97.2305 14.45C97.2305 13.8867 97.1048 13.384 96.8535 12.942C96.6108 12.5 96.2728 12.1577 95.8395 11.915C95.4061 11.6637 94.9208 11.538 94.3835 11.538C93.8461 11.538 93.3608 11.6637 92.9275 11.915C92.4941 12.1577 92.1518 12.5 91.9005 12.942C91.6578 13.384 91.5365 13.8867 91.5365 14.45C91.5365 15.0133 91.6578 15.516 91.9005 15.958C92.1518 16.4 92.4941 16.7467 92.9275 16.998C93.3608 17.2407 93.8461 17.362 94.3835 17.362Z" fill="#4D7FCC"/>
<path d="M47.298 24.3H48.101V30.68L53.029 24.3H53.766V32H52.963V25.631L48.035 32H47.298V24.3ZM56.1774 26.214H56.9584V28.777H60.5994V26.214H61.3804V32H60.5994V29.448H56.9584V32H56.1774V26.214ZM67.6703 26.907H65.4813V32H64.7003V26.907H62.5113V26.214H67.6703V26.907ZM73.5909 29.349H68.7509C68.7949 29.9503 69.0259 30.438 69.4439 30.812C69.8619 31.1787 70.3899 31.362 71.0279 31.362C71.3873 31.362 71.7173 31.2997 72.0179 31.175C72.3186 31.043 72.5789 30.8523 72.7989 30.603L73.2389 31.109C72.9823 31.417 72.6596 31.6517 72.2709 31.813C71.8896 31.9743 71.4679 32.055 71.0059 32.055C70.4119 32.055 69.8839 31.9303 69.4219 31.681C68.9673 31.4243 68.6116 31.0723 68.3549 30.625C68.0983 30.1777 67.9699 29.6717 67.9699 29.107C67.9699 28.5423 68.0909 28.0363 68.3329 27.589C68.5823 27.1417 68.9196 26.7933 69.3449 26.544C69.7776 26.2947 70.2616 26.17 70.7969 26.17C71.3323 26.17 71.8126 26.2947 72.2379 26.544C72.6633 26.7933 72.9969 27.1417 73.2389 27.589C73.4809 28.029 73.6019 28.535 73.6019 29.107L73.5909 29.349ZM70.7969 26.841C70.2396 26.841 69.7703 27.0207 69.3889 27.38C69.0149 27.732 68.8023 28.194 68.7509 28.766H72.8539C72.8026 28.194 72.5863 27.732 72.2049 27.38C71.8309 27.0207 71.3616 26.841 70.7969 26.841ZM78.3117 26.17C78.8544 26.17 79.3457 26.2947 79.7857 26.544C80.2257 26.786 80.5704 27.1307 80.8197 27.578C81.0691 28.0253 81.1937 28.535 81.1937 29.107C81.1937 29.6863 81.0691 30.1997 80.8197 30.647C80.5704 31.0943 80.2257 31.4427 79.7857 31.692C79.3531 31.934 78.8617 32.055 78.3117 32.055C77.8424 32.055 77.4171 31.9597 77.0357 31.769C76.6617 31.571 76.3537 31.285 76.1117 30.911V34.134H75.3307V26.214H76.0787V27.358C76.3134 26.9767 76.6214 26.6833 77.0027 26.478C77.3914 26.2727 77.8277 26.17 78.3117 26.17ZM78.2567 31.362C78.6601 31.362 79.0267 31.2703 79.3567 31.087C79.6867 30.8963 79.9434 30.6287 80.1267 30.284C80.3174 29.9393 80.4127 29.547 80.4127 29.107C80.4127 28.667 80.3174 28.2783 80.1267 27.941C79.9434 27.5963 79.6867 27.3287 79.3567 27.138C79.0267 26.9473 78.6601 26.852 78.2567 26.852C77.8461 26.852 77.4757 26.9473 77.1457 27.138C76.8231 27.3287 76.5664 27.5963 76.3757 27.941C76.1924 28.2783 76.1007 28.667 76.1007 29.107C76.1007 29.547 76.1924 29.9393 76.3757 30.284C76.5664 30.6287 76.8231 30.8963 77.1457 31.087C77.4757 31.2703 77.8461 31.362 78.2567 31.362ZM82.8717 26.214H83.6527V28.777H87.2937V26.214H88.0747V32H87.2937V29.448H83.6527V32H82.8717V26.214ZM95.3546 29.349H90.5146C90.5586 29.9503 90.7896 30.438 91.2076 30.812C91.6256 31.1787 92.1536 31.362 92.7916 31.362C93.1509 31.362 93.4809 31.2997 93.7816 31.175C94.0823 31.043 94.3426 30.8523 94.5626 30.603L95.0026 31.109C94.7459 31.417 94.4233 31.6517 94.0346 31.813C93.6533 31.9743 93.2316 32.055 92.7696 32.055C92.1756 32.055 91.6476 31.9303 91.1856 31.681C90.7309 31.4243 90.3753 31.0723 90.1186 30.625C89.8619 30.1777 89.7336 29.6717 89.7336 29.107C89.7336 28.5423 89.8546 28.0363 90.0966 27.589C90.3459 27.1417 90.6833 26.7933 91.1086 26.544C91.5413 26.2947 92.0253 26.17 92.5606 26.17C93.0959 26.17 93.5763 26.2947 94.0016 26.544C94.4269 26.7933 94.7606 27.1417 95.0026 27.589C95.2446 28.029 95.3656 28.535 95.3656 29.107L95.3546 29.349ZM92.5606 26.841C92.0033 26.841 91.5339 27.0207 91.1526 27.38C90.7786 27.732 90.5659 28.194 90.5146 28.766H94.6176C94.5663 28.194 94.3499 27.732 93.9686 27.38C93.5946 27.0207 93.1253 26.841 92.5606 26.841ZM100.907 26.907H98.7176V32H97.9366V26.907H95.7476V26.214H100.907V26.907ZM101.327 28.678H104.209V29.36H101.327V28.678ZM112.446 26.214V32H111.731V27.424L109.388 31.296H109.036L106.693 27.413V32H105.978V26.214H106.77L109.223 30.383L111.72 26.214H112.446ZM116.66 26.17C117.415 26.17 117.994 26.3607 118.398 26.742C118.801 27.116 119.003 27.6733 119.003 28.414V32H118.255V31.098C118.079 31.3987 117.818 31.6333 117.474 31.802C117.136 31.9707 116.733 32.055 116.264 32.055C115.618 32.055 115.105 31.901 114.724 31.593C114.342 31.285 114.152 30.878 114.152 30.372C114.152 29.8807 114.328 29.4847 114.68 29.184C115.039 28.8833 115.607 28.733 116.385 28.733H118.222V28.381C118.222 27.8823 118.082 27.5047 117.804 27.248C117.525 26.984 117.118 26.852 116.583 26.852C116.216 26.852 115.864 26.9143 115.527 27.039C115.189 27.1563 114.9 27.3213 114.658 27.534L114.306 26.951C114.599 26.7017 114.951 26.511 115.362 26.379C115.772 26.2397 116.205 26.17 116.66 26.17ZM116.385 31.439C116.825 31.439 117.202 31.34 117.518 31.142C117.833 30.9367 118.068 30.6433 118.222 30.262V29.316H116.407C115.417 29.316 114.922 29.6607 114.922 30.35C114.922 30.6873 115.05 30.955 115.307 31.153C115.563 31.3437 115.923 31.439 116.385 31.439ZM125.174 26.907H121.863V32H121.082V26.214H125.174V26.907ZM128.293 26.17C129.049 26.17 129.628 26.3607 130.031 26.742C130.435 27.116 130.636 27.6733 130.636 28.414V32H129.888V31.098C129.712 31.3987 129.452 31.6333 129.107 31.802C128.77 31.9707 128.367 32.055 127.897 32.055C127.252 32.055 126.739 31.901 126.357 31.593C125.976 31.285 125.785 30.878 125.785 30.372C125.785 29.8807 125.961 29.4847 126.313 29.184C126.673 28.8833 127.241 28.733 128.018 28.733H129.855V28.381C129.855 27.8823 129.716 27.5047 129.437 27.248C129.159 26.984 128.752 26.852 128.216 26.852C127.85 26.852 127.498 26.9143 127.16 27.039C126.823 27.1563 126.533 27.3213 126.291 27.534L125.939 26.951C126.233 26.7017 126.585 26.511 126.995 26.379C127.406 26.2397 127.839 26.17 128.293 26.17ZM128.018 31.439C128.458 31.439 128.836 31.34 129.151 31.142C129.467 30.9367 129.701 30.6433 129.855 30.262V29.316H128.04C127.05 29.316 126.555 29.6607 126.555 30.35C126.555 30.6873 126.684 30.955 126.94 31.153C127.197 31.3437 127.556 31.439 128.018 31.439ZM135.413 28.986C135.824 29.0813 136.139 29.2463 136.359 29.481C136.587 29.7157 136.7 30.0017 136.7 30.339C136.7 30.6763 136.583 30.977 136.348 31.241C136.121 31.505 135.809 31.7103 135.413 31.857C135.017 31.9963 134.581 32.066 134.104 32.066C133.686 32.066 133.276 32.0073 132.872 31.89C132.469 31.7653 132.117 31.5857 131.816 31.351L132.08 30.768C132.344 30.966 132.652 31.12 133.004 31.23C133.356 31.34 133.712 31.395 134.071 31.395C134.607 31.395 135.043 31.296 135.38 31.098C135.725 30.8927 135.897 30.6177 135.897 30.273C135.897 29.965 135.758 29.7267 135.479 29.558C135.201 29.382 134.819 29.294 134.335 29.294H133.345V28.722H134.291C134.724 28.722 135.072 28.6413 135.336 28.48C135.6 28.3113 135.732 28.0877 135.732 27.809C135.732 27.501 135.582 27.259 135.281 27.083C134.988 26.907 134.603 26.819 134.126 26.819C133.503 26.819 132.887 26.9767 132.278 27.292L132.058 26.687C132.748 26.3277 133.463 26.148 134.203 26.148C134.643 26.148 135.039 26.214 135.391 26.346C135.751 26.4707 136.029 26.6503 136.227 26.885C136.433 27.1197 136.535 27.391 136.535 27.699C136.535 27.9923 136.433 28.2527 136.227 28.48C136.029 28.7073 135.758 28.876 135.413 28.986ZM138.473 26.214H139.254V30.812L143.115 26.214H143.808V32H143.027V27.402L139.177 32H138.473V26.214ZM146.047 26.214H146.828V28.777H150.469V26.214H151.25V32H150.469V29.448H146.828V32H146.047V26.214ZM158.735 32.055C158.178 32.055 157.676 31.9303 157.228 31.681C156.781 31.4243 156.429 31.0723 156.172 30.625C155.916 30.1777 155.787 29.6717 155.787 29.107C155.787 28.5423 155.916 28.0363 156.172 27.589C156.429 27.1417 156.781 26.7933 157.228 26.544C157.676 26.2947 158.178 26.17 158.735 26.17C159.293 26.17 159.795 26.2947 160.242 26.544C160.69 26.7933 161.038 27.1417 161.287 27.589C161.544 28.0363 161.672 28.5423 161.672 29.107C161.672 29.6717 161.544 30.1777 161.287 30.625C161.038 31.0723 160.69 31.4243 160.242 31.681C159.795 31.9303 159.293 32.055 158.735 32.055ZM158.735 31.362C159.146 31.362 159.513 31.2703 159.835 31.087C160.165 30.8963 160.422 30.6287 160.605 30.284C160.789 29.9393 160.88 29.547 160.88 29.107C160.88 28.667 160.789 28.2747 160.605 27.93C160.422 27.5853 160.165 27.3213 159.835 27.138C159.513 26.9473 159.146 26.852 158.735 26.852C158.325 26.852 157.954 26.9473 157.624 27.138C157.302 27.3213 157.045 27.5853 156.854 27.93C156.671 28.2747 156.579 28.667 156.579 29.107C156.579 29.547 156.671 29.9393 156.854 30.284C157.045 30.6287 157.302 30.8963 157.624 31.087C157.954 31.2703 158.325 31.362 158.735 31.362ZM168.952 31.318V33.397H168.215V32H163.034V33.397H162.297V31.318H162.627C163.016 31.296 163.28 31.01 163.419 30.46C163.559 29.91 163.654 29.14 163.705 28.15L163.782 26.214H168.05V31.318H168.952ZM164.42 28.194C164.384 29.0153 164.314 29.6937 164.211 30.229C164.109 30.757 163.925 31.12 163.661 31.318H167.269V26.907H164.486L164.42 28.194ZM175.534 29.349H170.694C170.738 29.9503 170.969 30.438 171.387 30.812C171.805 31.1787 172.333 31.362 172.971 31.362C173.331 31.362 173.661 31.2997 173.961 31.175C174.262 31.043 174.522 30.8523 174.742 30.603L175.182 31.109C174.926 31.417 174.603 31.6517 174.214 31.813C173.833 31.9743 173.411 32.055 172.949 32.055C172.355 32.055 171.827 31.9303 171.365 31.681C170.911 31.4243 170.555 31.0723 170.298 30.625C170.042 30.1777 169.913 29.6717 169.913 29.107C169.913 28.5423 170.034 28.0363 170.276 27.589C170.526 27.1417 170.863 26.7933 171.288 26.544C171.721 26.2947 172.205 26.17 172.74 26.17C173.276 26.17 173.756 26.2947 174.181 26.544C174.607 26.7933 174.94 27.1417 175.182 27.589C175.424 28.029 175.545 28.535 175.545 29.107L175.534 29.349ZM172.74 26.841C172.183 26.841 171.714 27.0207 171.332 27.38C170.958 27.732 170.746 28.194 170.694 28.766H174.797C174.746 28.194 174.53 27.732 174.148 27.38C173.774 27.0207 173.305 26.841 172.74 26.841ZM182.184 29.426H180.93V32H180.149V29.426H178.895L177.124 32H176.189L178.268 29.019L176.354 26.214H177.201L178.895 28.755H180.149V26.214H180.93V28.755H182.184L183.889 26.214H184.736L182.822 29.03L184.901 32H183.966L182.184 29.426ZM191.844 31.318V33.397H191.107V32H185.926V33.397H185.189V31.318H185.519C185.908 31.296 186.172 31.01 186.311 30.46C186.45 29.91 186.546 29.14 186.597 28.15L186.674 26.214H190.942V31.318H191.844ZM187.312 28.194C187.275 29.0153 187.206 29.6937 187.103 30.229C187 30.757 186.817 31.12 186.553 31.318H190.161V26.907H187.378L187.312 28.194ZM195.797 28.26C196.523 28.2673 197.077 28.4287 197.458 28.744C197.839 29.0593 198.03 29.514 198.03 30.108C198.03 30.724 197.825 31.197 197.414 31.527C197.003 31.857 196.417 32.0183 195.654 32.011L193.366 32V26.214H194.147V28.238L195.797 28.26ZM198.998 26.214H199.779V32H198.998V26.214ZM195.61 31.417C196.145 31.4243 196.549 31.318 196.82 31.098C197.099 30.8707 197.238 30.5407 197.238 30.108C197.238 29.6827 197.102 29.3673 196.831 29.162C196.56 28.9567 196.153 28.8503 195.61 28.843L194.147 28.821V31.395L195.61 31.417Z" fill="#37475F"/>
<path d="M38 23.6058H31.2158V19.5844V16.9044H29.8575V19.5844V38.3514H8.14246V19.5844V16.9044H6.78282V19.5844V23.6058H0V19.5844H0.0307105C0.231724 12.73 0.106091 5.44952 4.95136 1.82516C6.13651 0.738815 11.1633 2.20428 12.0888 0.351425C13.6773 2.63165 16.0923 4.84018 19.1047 4.84018C22.1255 4.84018 23.8872 2.80949 25.4799 0.529266C25.8191 1.82516 30.3559 0.738815 32.2627 2.07882C37.0885 5.70319 37.7697 12.7493 37.9665 19.5844H37.9972V23.6058H38Z" fill="#4D7FCC"/>
</svg>
